<?xml version="1.0" encoding="utf-8"?>
<!-- Svg Vector Icons : http://www.onlinewebfonts.com/icon -->
<!DOCTYPE svg PUBLIC "-//W3C//DTD SVG 1.1//EN" "http://www.w3.org/Graphics/SVG/1.1/DTD/svg11.dtd">
<svg version="1.1" xmlns="http://www.w3.org/2000/svg" xmlns:xlink="http://www.w3.org/1999/xlink" x="0px" y="0px" viewBox="0 0 256 256" enable-background="new 0 0 256 256" xml:space="preserve">
<metadata> Svg Vector Icons : http://www.onlinewebfonts.com/icon </metadata>
<g><g><g><path fill="#000000" d="M17.6,39.3c-3.2,1.1-4.8,2.5-6.1,5.4c-1.5,3.3-1.6,10-1.3,91.1c0.2,77.6,0.1,74,2.5,77.5c1.4,2,4.3,3.3,8.8,3.8c2.5,0.3,41.9,0.4,109.5,0.3c101.4-0.1,105.6-0.2,107.8-1.1c2.9-1.1,4.9-3.1,6-6c0.9-2.2,0.9-5.8,1.1-80.8c0.1-85.9,0.2-83.5-2.6-87.2c-0.7-1-2.3-2.2-3.6-2.8l-2.2-1l-108.7-0.1C24.6,38.4,20,38.4,17.6,39.3z M237.3,45.3c1.8,1.2,2.3,3.5,2.3,9.8v5.3H127.8H16v-2.6c0-1.4,0.2-4.4,0.5-6.7c0.6-5.2,1.3-6,5.5-6.4c1.7-0.1,50.5-0.3,108.5-0.2C230,44.5,236.1,44.5,237.3,45.3z M239.6,137.2l-0.1,70.6l-1,1.4c-0.6,0.8-1.7,1.5-2.9,1.7c-1,0.2-50,0.3-108.9,0.3c-83.5-0.1-107.3-0.3-108-0.7c-2.4-1.4-2.4,1-2.5-73.1c0-38.1,0-69.7,0.1-70c0.2-0.5,20.1-0.6,111.9-0.6h111.6L239.6,137.2z"/><path fill="#000000" d="M28.6,47.9c-1.5,0.8-2.8,3-2.8,4.6c0,3.3,3.5,5.9,6.6,4.9c4.7-1.6,4.9-8.1,0.3-9.8C31.1,47,30.2,47,28.6,47.9z"/><path fill="#000000" d="M43.1,47.6c-1.7,0.7-3.1,2.9-3.1,4.9c0,5.4,7.3,7.1,9.6,2.2C51.5,50.5,47.4,45.9,43.1,47.6z"/><path fill="#000000" d="M56.7,47.6c-1.7,0.7-3.1,2.9-3.1,4.9c0,3.7,3.7,6.1,7,4.7c1.8-0.7,3.3-2.9,3.3-4.7c0-1.7-1.4-3.8-2.9-4.6C59.4,47,58.3,47,56.7,47.6z"/></g></g></g>
</svg>